<svg width="40" height="40" viewBox="0 0 40 40" fill="none" xmlns="http://www.w3.org/2000/svg">
<circle opacity="0.1" cx="20" cy="20" r="20" fill="#21B4B3"/>
<g clip-path="url(#clip0)">
<path d="M26.7495 21.1999C26.9396 21.2003 27.1264 21.163 27.2999 21.0918M26.7495 21.1999L26.7499 20.9999V21.1999H26.7495ZM26.7495 21.1999H21.7M27.2999 21.0918L21.7 20.9999V21.1999M27.2999 21.0918V26.2499C27.2999 26.5537 27.0539 26.7998 26.7501 26.7999C26.75 26.7999 26.75 26.7999 26.7499 26.7999H13.2501C12.9462 26.7999 12.7001 26.5538 12.7001 26.2499V21.0918C12.8735 21.163 13.0604 21.2003 13.2505 21.1999M27.2999 21.0918L12.7001 20.8726C12.8703 20.9562 13.0583 21.0003 13.2501 20.9999M21.7 21.1999H21.5V21.2499C21.5 21.3161 21.4737 21.3799 21.4269 21.4267C21.38 21.4736 21.3162 21.4999 21.25 21.4999H18.75C18.6837 21.4999 18.62 21.4736 18.5731 21.4267C18.5262 21.3799 18.5 21.3161 18.5 21.2499V21.1999H18.3M21.7 21.1999V21.2499C21.7 21.3688 21.6529 21.4836 21.5683 21.5682C21.4837 21.6528 21.369 21.6999 21.25 21.6999H18.75C18.631 21.6999 18.5163 21.6528 18.4317 21.5682C18.3471 21.4836 18.3 21.3688 18.3 21.2499V21.1999M18.3 21.1999V20.9999H13.2501M18.3 21.1999H13.2505M13.2505 21.1999L13.2501 20.9999M13.2505 21.1999H13.2501V20.9999M23.0047 15.6237L23.0045 15.6236C22.8184 15.5306 22.7005 15.3402 22.7 15.132V14.25C22.7 13.8656 22.547 13.4967 22.2752 13.2248C22.0034 12.953 21.6344 12.8 21.25 12.8H18.75C17.949 12.8 17.3 13.4489 17.3 14.25L17.3 15.1333C17.3 15.1334 17.3 15.1334 17.3 15.1335C17.2995 15.3416 17.1816 15.5318 16.9956 15.6249L16.6442 15.8H13.25C12.4489 15.8 11.8 16.4489 11.8 17.25V26.25C11.8 26.6343 11.953 27.0033 12.2248 27.2752C12.4967 27.547 12.8656 27.7 13.25 27.7H26.75C27.1343 27.7 27.5033 27.547 27.7752 27.2752C28.047 27.0033 28.2 26.6344 28.2 26.25V17.25C28.2 16.8656 28.047 16.4967 27.7752 16.2248C27.5034 15.953 27.1344 15.8 26.7501 15.8C26.75 15.8 26.75 15.8 26.75 15.8H23.3561L23.0047 15.6237ZM21.8 15.1341C21.8004 15.3679 21.8576 15.5962 21.9641 15.8H18.036C18.1122 15.6544 18.1631 15.4963 18.186 15.3325H18.2V15.1325V14.25C18.2 13.9461 18.4461 13.7 18.75 13.7H21.25C21.5539 13.7 21.8 13.9461 21.8 14.25L21.8 15.1337L21.8 15.1341ZM26.75 20.2999H21.7001V20.2499C21.7001 20.1309 21.653 20.0162 21.5684 19.9316C21.4838 19.847 21.369 19.7999 21.2501 19.7999H18.7501C18.5015 19.7999 18.3001 20.0013 18.3001 20.2499V20.2999H13.2501C12.9462 20.2999 12.7001 20.0538 12.7001 19.7499V19.7499L12.7 17.2499C12.7 17.2499 12.7 17.2499 12.7 17.2499C12.7 16.946 12.9461 16.6999 13.25 16.6999H26.75C27.0539 16.6999 27.3 16.946 27.3 17.2499V19.7499C27.3 20.0538 27.0539 20.2999 26.75 20.2999ZM19.2 20.6999H20.8V20.7999H19.2V20.6999Z" fill="#21B4B3" stroke="#21B4B3" stroke-width="0.4"/>
</g>
<defs>
<clipPath id="clip0">
<rect width="16" height="16" fill="white" transform="translate(12 12)"/>
</clipPath>
</defs>
</svg>
