<svg width="16" height="14" viewBox="0 0 16 14" fill="none" xmlns="http://www.w3.org/2000/svg">
<path fill-rule="evenodd" clip-rule="evenodd" d="M7.98559 0.287543C7.85184 0.293168 7.73559 0.381294 7.69435 0.508791L6.18747 5.17999L1.28059 5.16999C1.14184 5.16999 1.01809 5.25937 0.975594 5.39124C0.932469 5.52374 0.979969 5.66812 1.09247 5.74999L5.06879 8.62679L3.54191 13.293C3.49878 13.4249 3.54566 13.5699 3.65816 13.6512C3.77003 13.733 3.92253 13.733 4.03441 13.6512L7.99937 10.758L11.9656 13.6512C12.0775 13.733 12.23 13.733 12.3419 13.6512C12.4544 13.5699 12.5012 13.4249 12.4581 13.293L10.9312 8.62679L14.9076 5.74999C15.0201 5.66812 15.0676 5.52374 15.0244 5.39124C14.9813 5.25936 14.8582 5.16999 14.7194 5.17062L9.81256 5.18062L8.30381 0.509416V0.508791C8.25944 0.371915 8.12944 0.28191 7.98568 0.287542L7.98559 0.287543Z" fill="#E9B200"/>
</svg>
