<svg width="18" height="18" viewBox="0 0 18 18" fill="none" xmlns="http://www.w3.org/2000/svg">
<path d="M8.99973 11.7H8.99899C8.86708 11.699 8.74033 11.6454 8.6476 11.5518C8.26706 11.1713 7.55068 10.8843 6.58901 10.7173C5.76269 10.574 4.765 10.5263 3.69989 10.5136L3.69971 14.1347C3.86815 14.2495 4.02826 14.3609 4.18284 14.4684C4.79232 14.8925 5.31582 15.2567 5.92525 15.5346C6.69724 15.8867 7.60871 16.1 8.9997 16.1C9.66225 16.1 10.4591 15.9119 11.2818 15.6228C12.1031 15.3343 12.9435 14.9474 13.6908 14.5552C14.4383 14.163 15.0938 13.7706 15.5625 13.4763C15.7968 13.3291 15.9842 13.2066 16.113 13.1209C16.1774 13.078 16.2271 13.0444 16.2607 13.0215L16.2987 12.9955L16.3042 12.9917L16.311 12.9848L16.3192 12.9793C16.6131 12.7832 16.7604 12.6606 16.8184 12.5794C16.8484 12.5373 16.8667 12.5032 16.8791 12.4535C16.8923 12.4003 16.8998 12.3252 16.8998 12.2C16.8998 12.1548 16.8952 12.1371 16.8916 12.1283C16.8885 12.1207 16.8831 12.1119 16.8608 12.09C16.8285 12.0582 16.7469 12.0139 16.6266 11.9768L16.6265 11.9768C16.3947 11.9051 16.0996 11.9 15.9998 11.9C15.9122 11.9 15.7497 11.9367 15.5515 12.0019C15.3573 12.0659 15.1406 12.1532 14.9498 12.2462C14.7574 12.3398 14.586 12.434 14.4627 12.5048C14.4011 12.5402 14.3516 12.5696 14.3176 12.5902L14.2786 12.614L14.2687 12.6201L14.2667 12.6214L14.2662 12.6217L14.2657 12.622L14.2655 12.6221L14.2655 12.6221L8.99973 11.7ZM8.99973 11.7H12.7997C13.0836 11.7 13.2997 11.9162 13.2997 12.2C13.2997 12.4838 13.0836 12.7 12.7997 12.7H7.00036M8.99973 11.7L7.00036 12.7M7.00036 12.7H6.99973V12.8L7.00036 12.7ZM0.552965 9.10044C0.295269 9.12485 0.0990203 9.34154 0.099893 9.60018V15.2C0.099893 15.4763 0.323571 15.7 0.599893 15.7H3.19989C3.42983 15.7 3.6233 15.5451 3.68179 15.3339C4.35942 15.7992 5.00573 16.2291 5.79217 16.5476C6.63387 16.8884 7.6318 17.1 8.99989 17.1C10.669 17.1 12.6095 16.2511 14.1587 15.4386L14.1587 15.4386C15.7048 14.6275 16.8691 13.8226 16.8833 13.8122L16.8898 13.8076L16.8947 13.8027C17.1946 13.6026 17.4426 13.428 17.6311 13.1644L17.6311 13.1644C17.8268 12.8903 17.8997 12.5574 17.8997 12.2C17.8997 11.8717 17.7566 11.572 17.5568 11.3782C17.3609 11.1882 17.1336 11.0817 16.9228 11.0169L16.9228 11.0169C16.531 10.8967 16.1503 10.8991 16.0224 10.8999C16.0136 10.9 16.006 10.9 15.9997 10.9C15.4658 10.9 14.9417 11.1383 14.5121 11.3476C14.3165 11.4427 14.2286 11.4923 14.1393 11.5446C13.8958 11.0476 13.3896 10.7 12.7997 10.7H9.17433C8.56326 10.1815 7.7248 9.90001 6.76056 9.73271L6.74346 9.83124L6.76056 9.73271C5.84091 9.57317 4.79118 9.51929 3.69108 9.50715C3.6476 9.27525 3.44426 9.09999 3.19966 9.09999H0.602548C0.58701 9.09915 0.571463 9.09921 0.555927 9.10018L0.556218 9.13479L0.552965 9.10044ZM12.7997 13.7C13.4633 13.7 14.0026 13.2512 14.1993 12.6576L6.71301 13.4852C6.78958 13.5602 6.8927 13.6016 6.99973 13.6V13.7H7.00036H12.7997ZM11.8 0.9C10.8659 0.9 10.1 1.66587 10.1 2.6C10.1 3.53413 10.8659 4.3 11.8 4.3C12.7341 4.3 13.5 3.53413 13.5 2.6C13.5 1.66587 12.7341 0.9 11.8 0.9ZM11.8 1.9C12.1916 1.9 12.5 2.20835 12.5 2.6C12.5 2.99165 12.1916 3.3 11.8 3.3C11.4083 3.3 11.1 2.99165 11.1 2.6C11.1 2.20835 11.4083 1.9 11.8 1.9ZM7.19999 2.5C5.9346 2.5 4.89999 3.53461 4.89999 4.8C4.89999 6.06539 5.9346 7.1 7.19999 7.1C8.46538 7.1 9.49999 6.06539 9.49999 4.8C9.49999 3.53461 8.46538 2.5 7.19999 2.5ZM7.19999 3.5C7.92288 3.5 8.49999 4.07711 8.49999 4.8C8.49999 5.52289 7.92288 6.1 7.19999 6.1C6.4771 6.1 5.89999 5.52289 5.89999 4.8C5.89999 4.07711 6.4771 3.5 7.19999 3.5ZM13 4.9C11.6237 4.9 10.5 6.02367 10.5 7.4C10.5 8.77633 11.6237 9.9 13 9.9C14.3763 9.9 15.5 8.77633 15.5 7.4C15.5 6.02367 14.3763 4.9 13 4.9ZM13 5.9C13.833 5.9 14.5 6.56695 14.5 7.4C14.5 8.23305 13.833 8.9 13 8.9C12.1669 8.9 11.5 8.23305 11.5 7.4C11.5 6.56695 12.1669 5.9 13 5.9ZM1.09989 10.1H2.69989V14.3975C2.69911 14.4139 2.69911 14.4298 2.69989 14.4462V14.7H1.09989V10.1Z" fill="#213F7D" stroke="#213F7D" stroke-width="0.2"/>
</svg>
