<svg width="15" height="17" viewBox="0 0 15 17" fill="none" xmlns="http://www.w3.org/2000/svg">
<path d="M0.66748 0.340014V13.95H6.06838V12.93H1.68748V1.36001H6.81995V5.06414H10.3182V8.20574H11.3382V4.18677L7.57492 0.339844L0.66748 0.340014ZM7.83995 2.07061L9.77302 4.04414H7.83995V2.07061Z" fill="#213F7D"/>
<path d="M2.73474 7.09961H8.86341V8.11961H2.73474V7.09961Z" fill="#213F7D"/>
<path d="M2.73474 9.30957H5.80341V10.3296H2.73474V9.30957Z" fill="#213F7D"/>
<path d="M14.3325 15.2509V10.54C14.3325 9.15613 11.0634 9.11694 10.6907 9.11694C10.3182 9.11694 7.05103 9.15944 7.05103 10.54V15.2827C7.05169 15.3345 7.06032 15.3856 7.07692 15.4341C7.36711 16.6261 10.3375 16.6599 10.6928 16.6599C11.0481 16.6599 14.2628 16.6194 14.3305 15.278C14.3305 15.2707 14.3325 15.2628 14.3325 15.2508L14.3325 15.2509ZM13.3125 12.0209C13.1099 12.2075 12.1749 12.5123 10.6928 12.5123C9.20991 12.5123 8.28217 12.2075 8.07103 12.0275V11.5893C9.06379 11.9512 10.451 11.9664 10.6928 11.9664C10.9345 11.9664 12.321 11.9492 13.3145 11.5893L13.3125 12.0209ZM8.07103 13.1545C9.06379 13.5164 10.451 13.5317 10.6928 13.5317C10.9345 13.5317 12.321 13.5144 13.3145 13.1545L13.3138 13.6C13.1033 13.78 12.175 14.0848 10.6921 14.0848C9.2099 14.0848 8.28218 13.77 8.07104 13.6L8.07103 13.1545ZM10.6928 10.1404C11.9678 10.1404 12.8331 10.3661 13.185 10.5434C12.833 10.7134 11.9677 10.9465 10.6928 10.9465C9.4178 10.9465 8.55042 10.7221 8.20056 10.5401C8.55053 10.3701 9.41579 10.1404 10.6928 10.1404ZM8.07103 15.1593V14.7203C9.06379 15.0822 10.451 15.0975 10.6928 15.0975C10.9345 15.0975 12.321 15.0803 13.3145 14.7203V15.1586C13.1013 15.3392 12.175 15.64 10.6928 15.64C9.20991 15.64 8.28217 15.3392 8.07103 15.1593Z" fill="#213F7D"/>
</svg>
