<svg width="16" height="18" viewBox="0 0 16 18" fill="none" xmlns="http://www.w3.org/2000/svg">
<mask id="path-1-outside-1" maskUnits="userSpaceOnUse" x="-0.554321" y="-0.0998535" width="17" height="18" fill="black">
<rect fill="white" x="-0.554321" y="-0.0998535" width="17" height="18"/>
<path d="M13.9879 8.25059C13.9893 8.19856 13.9928 8.14723 13.9928 8.0952C13.9928 6.14688 12.8875 4.32294 11.2507 3.3027C11.4574 2.6263 11.6276 1.9274 11.8132 1.24116C11.835 1.1603 11.8181 1.07312 11.7668 1.00632C11.7162 0.939522 11.6367 0.900146 11.5524 0.900146H8.46139C8.37702 0.900146 8.29827 0.939522 8.24694 1.00632C8.19561 1.07311 8.17874 1.1596 8.20053 1.24116L8.7567 3.30486C7.06286 4.33986 6.01944 6.15678 6.01944 8.0952C6.01944 8.46505 6.056 8.82996 6.12913 9.18575H6.02999C5.61865 9.18575 5.22843 9.34185 4.931 9.62591L3.70896 10.7945C3.54443 10.708 3.36021 10.6616 3.16755 10.6616C2.8617 10.6616 2.57341 10.779 2.35615 10.9914L0.793803 12.5207C0.573015 12.7365 0.449265 13.0269 0.445755 13.3377C0.44224 13.6485 0.559661 13.941 0.775515 14.1618L3.31244 16.7534C3.53182 16.9763 3.82643 17.1 4.14213 17.1C4.44798 17.1 4.73627 16.9826 4.95353 16.7703L6.51588 15.241C6.73667 15.0251 6.86042 14.7347 6.86393 14.424C6.86603 14.2397 6.82455 14.0625 6.7465 13.9022L6.80768 13.8565C7.11494 13.6287 7.47917 13.5085 7.86026 13.5085H10.2663C10.8745 13.5085 11.4673 13.299 11.9362 12.9186L13.2757 11.8344C13.3277 11.7992 13.3783 11.7591 13.4297 11.7099C13.4318 11.7085 13.4325 11.7064 13.4346 11.705C13.4416 11.698 13.4501 11.6923 13.4571 11.6846L15.3478 9.6695C15.4821 9.52536 15.5559 9.33761 15.5559 9.14075C15.5559 8.92981 15.468 8.7252 15.3126 8.57614C14.9449 8.23373 14.4415 8.12825 13.988 8.25059L13.9879 8.25059ZM11.2001 1.44011L10.7346 3.16207H9.27772L8.81366 1.44011H11.2001ZM6.55949 8.09453C6.55949 6.30368 7.55019 4.62737 9.14627 3.70217H10.8633C12.4615 4.62538 13.453 6.30155 13.453 8.09453C13.453 8.24711 13.4438 8.39899 13.4291 8.54875C13.396 8.57758 13.3644 8.60781 13.3334 8.64015L12.4313 9.60274L12.2344 9.72157C12.233 9.72227 12.2323 9.72368 12.2309 9.72438C12.2295 9.72508 12.2281 9.72579 12.2267 9.72649L11.6291 10.1146C11.4434 9.9086 11.1762 9.77851 10.8781 9.77851L8.79965 9.77921L8.37145 9.47687C8.10215 9.28562 7.78435 9.18437 7.45387 9.18437H6.68325C6.60239 8.8314 6.5595 8.46577 6.5595 8.09452L6.55949 8.09453ZM6.1376 14.8552L4.57526 16.3845C4.33971 16.6151 3.92837 16.6109 3.69846 16.3753L1.16154 13.783C1.04623 13.6655 0.983649 13.5087 0.985758 13.3421C0.987868 13.1755 1.05326 13.0208 1.17067 12.9055L2.73302 11.3762C2.84903 11.2629 3.00302 11.2004 3.16685 11.2004C3.3356 11.2004 3.4931 11.2665 3.61052 11.3853L6.14744 13.9769C6.26275 14.0943 6.32533 14.2511 6.32322 14.4178C6.32181 14.5844 6.25572 14.7398 6.1376 14.8551V14.8552ZM14.952 9.30179L13.0746 11.3029L12.9284 11.421C12.9206 11.4266 12.9129 11.4329 12.9059 11.4393L11.5953 12.5003C11.2219 12.8033 10.7494 12.9693 10.2649 12.9693H7.85889C7.3681 12.9693 6.88014 13.1303 6.48428 13.4235L6.41256 13.4769L4.12602 11.1411L5.30306 10.0153C5.49923 9.82831 5.75657 9.72495 6.02868 9.72495H7.45322C7.66837 9.72495 7.88282 9.79316 8.05861 9.91831L8.55712 10.2699C8.55782 10.2706 8.55853 10.2706 8.55993 10.2713C8.57048 10.2783 8.58173 10.2839 8.59298 10.2896C8.5972 10.2917 8.60212 10.2945 8.60634 10.2966C8.61689 10.3008 8.62743 10.3036 8.63798 10.3071C8.64431 10.3092 8.65063 10.3114 8.65696 10.3128C8.6647 10.3142 8.67243 10.3149 8.68017 10.3156C8.69001 10.317 8.70056 10.3184 8.7104 10.3184C8.71181 10.3184 8.71251 10.3191 8.71321 10.3191L10.8774 10.3184C11.1375 10.3184 11.3492 10.53 11.3492 10.7902C11.3492 11.0503 11.1375 11.262 10.8774 11.262H8.39245C8.24339 11.262 8.12245 11.3829 8.12245 11.532C8.12245 11.681 8.24339 11.802 8.39245 11.802H10.8781C11.4364 11.802 11.8899 11.3478 11.8899 10.7902C11.8899 10.7255 11.8835 10.6622 11.8716 10.6003L12.5192 10.1792L12.7407 10.0456C12.7604 10.0336 12.7772 10.0189 12.7927 10.0034C12.7948 10.0013 12.7969 10.0006 12.799 9.99917L13.7271 9.00917C13.7658 8.96769 13.8087 8.93183 13.853 8.89948C13.8537 8.89878 13.8544 8.89808 13.8558 8.89737C14.1821 8.66534 14.6391 8.68573 14.94 8.96768C14.9885 9.01409 15.0146 9.07526 15.0146 9.13995C15.0146 9.18354 15.004 9.24612 14.952 9.30167L14.952 9.30179Z"/>
</mask>
<path d="M13.9879 8.25059C13.9893 8.19856 13.9928 8.14723 13.9928 8.0952C13.9928 6.14688 12.8875 4.32294 11.2507 3.3027C11.4574 2.6263 11.6276 1.9274 11.8132 1.24116C11.835 1.1603 11.8181 1.07312 11.7668 1.00632C11.7162 0.939522 11.6367 0.900146 11.5524 0.900146H8.46139C8.37702 0.900146 8.29827 0.939522 8.24694 1.00632C8.19561 1.07311 8.17874 1.1596 8.20053 1.24116L8.7567 3.30486C7.06286 4.33986 6.01944 6.15678 6.01944 8.0952C6.01944 8.46505 6.056 8.82996 6.12913 9.18575H6.02999C5.61865 9.18575 5.22843 9.34185 4.931 9.62591L3.70896 10.7945C3.54443 10.708 3.36021 10.6616 3.16755 10.6616C2.8617 10.6616 2.57341 10.779 2.35615 10.9914L0.793803 12.5207C0.573015 12.7365 0.449265 13.0269 0.445755 13.3377C0.44224 13.6485 0.559661 13.941 0.775515 14.1618L3.31244 16.7534C3.53182 16.9763 3.82643 17.1 4.14213 17.1C4.44798 17.1 4.73627 16.9826 4.95353 16.7703L6.51588 15.241C6.73667 15.0251 6.86042 14.7347 6.86393 14.424C6.86603 14.2397 6.82455 14.0625 6.7465 13.9022L6.80768 13.8565C7.11494 13.6287 7.47917 13.5085 7.86026 13.5085H10.2663C10.8745 13.5085 11.4673 13.299 11.9362 12.9186L13.2757 11.8344C13.3277 11.7992 13.3783 11.7591 13.4297 11.7099C13.4318 11.7085 13.4325 11.7064 13.4346 11.705C13.4416 11.698 13.4501 11.6923 13.4571 11.6846L15.3478 9.6695C15.4821 9.52536 15.5559 9.33761 15.5559 9.14075C15.5559 8.92981 15.468 8.7252 15.3126 8.57614C14.9449 8.23373 14.4415 8.12825 13.988 8.25059L13.9879 8.25059ZM11.2001 1.44011L10.7346 3.16207H9.27772L8.81366 1.44011H11.2001ZM6.55949 8.09453C6.55949 6.30368 7.55019 4.62737 9.14627 3.70217H10.8633C12.4615 4.62538 13.453 6.30155 13.453 8.09453C13.453 8.24711 13.4438 8.39899 13.4291 8.54875C13.396 8.57758 13.3644 8.60781 13.3334 8.64015L12.4313 9.60274L12.2344 9.72157C12.233 9.72227 12.2323 9.72368 12.2309 9.72438C12.2295 9.72508 12.2281 9.72579 12.2267 9.72649L11.6291 10.1146C11.4434 9.9086 11.1762 9.77851 10.8781 9.77851L8.79965 9.77921L8.37145 9.47687C8.10215 9.28562 7.78435 9.18437 7.45387 9.18437H6.68325C6.60239 8.8314 6.5595 8.46577 6.5595 8.09452L6.55949 8.09453ZM6.1376 14.8552L4.57526 16.3845C4.33971 16.6151 3.92837 16.6109 3.69846 16.3753L1.16154 13.783C1.04623 13.6655 0.983649 13.5087 0.985758 13.3421C0.987868 13.1755 1.05326 13.0208 1.17067 12.9055L2.73302 11.3762C2.84903 11.2629 3.00302 11.2004 3.16685 11.2004C3.3356 11.2004 3.4931 11.2665 3.61052 11.3853L6.14744 13.9769C6.26275 14.0943 6.32533 14.2511 6.32322 14.4178C6.32181 14.5844 6.25572 14.7398 6.1376 14.8551V14.8552ZM14.952 9.30179L13.0746 11.3029L12.9284 11.421C12.9206 11.4266 12.9129 11.4329 12.9059 11.4393L11.5953 12.5003C11.2219 12.8033 10.7494 12.9693 10.2649 12.9693H7.85889C7.3681 12.9693 6.88014 13.1303 6.48428 13.4235L6.41256 13.4769L4.12602 11.1411L5.30306 10.0153C5.49923 9.82831 5.75657 9.72495 6.02868 9.72495H7.45322C7.66837 9.72495 7.88282 9.79316 8.05861 9.91831L8.55712 10.2699C8.55782 10.2706 8.55853 10.2706 8.55993 10.2713C8.57048 10.2783 8.58173 10.2839 8.59298 10.2896C8.5972 10.2917 8.60212 10.2945 8.60634 10.2966C8.61689 10.3008 8.62743 10.3036 8.63798 10.3071C8.64431 10.3092 8.65063 10.3114 8.65696 10.3128C8.6647 10.3142 8.67243 10.3149 8.68017 10.3156C8.69001 10.317 8.70056 10.3184 8.7104 10.3184C8.71181 10.3184 8.71251 10.3191 8.71321 10.3191L10.8774 10.3184C11.1375 10.3184 11.3492 10.53 11.3492 10.7902C11.3492 11.0503 11.1375 11.262 10.8774 11.262H8.39245C8.24339 11.262 8.12245 11.3829 8.12245 11.532C8.12245 11.681 8.24339 11.802 8.39245 11.802H10.8781C11.4364 11.802 11.8899 11.3478 11.8899 10.7902C11.8899 10.7255 11.8835 10.6622 11.8716 10.6003L12.5192 10.1792L12.7407 10.0456C12.7604 10.0336 12.7772 10.0189 12.7927 10.0034C12.7948 10.0013 12.7969 10.0006 12.799 9.99917L13.7271 9.00917C13.7658 8.96769 13.8087 8.93183 13.853 8.89948C13.8537 8.89878 13.8544 8.89808 13.8558 8.89737C14.1821 8.66534 14.6391 8.68573 14.94 8.96768C14.9885 9.01409 15.0146 9.07526 15.0146 9.13995C15.0146 9.18354 15.004 9.24612 14.952 9.30167L14.952 9.30179Z" fill="#213F7D"/>
<path d="M13.9879 8.25059C13.9893 8.19856 13.9928 8.14723 13.9928 8.0952C13.9928 6.14688 12.8875 4.32294 11.2507 3.3027C11.4574 2.6263 11.6276 1.9274 11.8132 1.24116C11.835 1.1603 11.8181 1.07312 11.7668 1.00632C11.7162 0.939522 11.6367 0.900146 11.5524 0.900146H8.46139C8.37702 0.900146 8.29827 0.939522 8.24694 1.00632C8.19561 1.07311 8.17874 1.1596 8.20053 1.24116L8.7567 3.30486C7.06286 4.33986 6.01944 6.15678 6.01944 8.0952C6.01944 8.46505 6.056 8.82996 6.12913 9.18575H6.02999C5.61865 9.18575 5.22843 9.34185 4.931 9.62591L3.70896 10.7945C3.54443 10.708 3.36021 10.6616 3.16755 10.6616C2.8617 10.6616 2.57341 10.779 2.35615 10.9914L0.793803 12.5207C0.573015 12.7365 0.449265 13.0269 0.445755 13.3377C0.44224 13.6485 0.559661 13.941 0.775515 14.1618L3.31244 16.7534C3.53182 16.9763 3.82643 17.1 4.14213 17.1C4.44798 17.1 4.73627 16.9826 4.95353 16.7703L6.51588 15.241C6.73667 15.0251 6.86042 14.7347 6.86393 14.424C6.86603 14.2397 6.82455 14.0625 6.7465 13.9022L6.80768 13.8565C7.11494 13.6287 7.47917 13.5085 7.86026 13.5085H10.2663C10.8745 13.5085 11.4673 13.299 11.9362 12.9186L13.2757 11.8344C13.3277 11.7992 13.3783 11.7591 13.4297 11.7099C13.4318 11.7085 13.4325 11.7064 13.4346 11.705C13.4416 11.698 13.4501 11.6923 13.4571 11.6846L15.3478 9.6695C15.4821 9.52536 15.5559 9.33761 15.5559 9.14075C15.5559 8.92981 15.468 8.7252 15.3126 8.57614C14.9449 8.23373 14.4415 8.12825 13.988 8.25059L13.9879 8.25059ZM11.2001 1.44011L10.7346 3.16207H9.27772L8.81366 1.44011H11.2001ZM6.55949 8.09453C6.55949 6.30368 7.55019 4.62737 9.14627 3.70217H10.8633C12.4615 4.62538 13.453 6.30155 13.453 8.09453C13.453 8.24711 13.4438 8.39899 13.4291 8.54875C13.396 8.57758 13.3644 8.60781 13.3334 8.64015L12.4313 9.60274L12.2344 9.72157C12.233 9.72227 12.2323 9.72368 12.2309 9.72438C12.2295 9.72508 12.2281 9.72579 12.2267 9.72649L11.6291 10.1146C11.4434 9.9086 11.1762 9.77851 10.8781 9.77851L8.79965 9.77921L8.37145 9.47687C8.10215 9.28562 7.78435 9.18437 7.45387 9.18437H6.68325C6.60239 8.8314 6.5595 8.46577 6.5595 8.09452L6.55949 8.09453ZM6.1376 14.8552L4.57526 16.3845C4.33971 16.6151 3.92837 16.6109 3.69846 16.3753L1.16154 13.783C1.04623 13.6655 0.983649 13.5087 0.985758 13.3421C0.987868 13.1755 1.05326 13.0208 1.17067 12.9055L2.73302 11.3762C2.84903 11.2629 3.00302 11.2004 3.16685 11.2004C3.3356 11.2004 3.4931 11.2665 3.61052 11.3853L6.14744 13.9769C6.26275 14.0943 6.32533 14.2511 6.32322 14.4178C6.32181 14.5844 6.25572 14.7398 6.1376 14.8551V14.8552ZM14.952 9.30179L13.0746 11.3029L12.9284 11.421C12.9206 11.4266 12.9129 11.4329 12.9059 11.4393L11.5953 12.5003C11.2219 12.8033 10.7494 12.9693 10.2649 12.9693H7.85889C7.3681 12.9693 6.88014 13.1303 6.48428 13.4235L6.41256 13.4769L4.12602 11.1411L5.30306 10.0153C5.49923 9.82831 5.75657 9.72495 6.02868 9.72495H7.45322C7.66837 9.72495 7.88282 9.79316 8.05861 9.91831L8.55712 10.2699C8.55782 10.2706 8.55853 10.2706 8.55993 10.2713C8.57048 10.2783 8.58173 10.2839 8.59298 10.2896C8.5972 10.2917 8.60212 10.2945 8.60634 10.2966C8.61689 10.3008 8.62743 10.3036 8.63798 10.3071C8.64431 10.3092 8.65063 10.3114 8.65696 10.3128C8.6647 10.3142 8.67243 10.3149 8.68017 10.3156C8.69001 10.317 8.70056 10.3184 8.7104 10.3184C8.71181 10.3184 8.71251 10.3191 8.71321 10.3191L10.8774 10.3184C11.1375 10.3184 11.3492 10.53 11.3492 10.7902C11.3492 11.0503 11.1375 11.262 10.8774 11.262H8.39245C8.24339 11.262 8.12245 11.3829 8.12245 11.532C8.12245 11.681 8.24339 11.802 8.39245 11.802H10.8781C11.4364 11.802 11.8899 11.3478 11.8899 10.7902C11.8899 10.7255 11.8835 10.6622 11.8716 10.6003L12.5192 10.1792L12.7407 10.0456C12.7604 10.0336 12.7772 10.0189 12.7927 10.0034C12.7948 10.0013 12.7969 10.0006 12.799 9.99917L13.7271 9.00917C13.7658 8.96769 13.8087 8.93183 13.853 8.89948C13.8537 8.89878 13.8544 8.89808 13.8558 8.89737C14.1821 8.66534 14.6391 8.68573 14.94 8.96768C14.9885 9.01409 15.0146 9.07526 15.0146 9.13995C15.0146 9.18354 15.004 9.24612 14.952 9.30167L14.952 9.30179Z" stroke="#213F7D" stroke-width="0.6" mask="url(#path-1-outside-1)"/>
</svg>
