<svg width="14" height="16" viewBox="0 0 14 16" fill="none" xmlns="http://www.w3.org/2000/svg">
<path d="M13.7669 2C13.7669 1.34595 13.228 0.820851 12.432 0.464586C11.6294 0.105377 10.5311 -0.1 9.33312 -0.1C8.13541 -0.1 7.03736 0.105378 6.23483 0.464588C5.43887 0.820853 4.9 1.34596 4.9 2C4.9 2.65404 5.43887 3.17915 6.23483 3.53541C7.03736 3.89462 8.13541 4.1 9.33312 4.1C10.5311 4.1 11.6294 3.89462 12.432 3.53541C13.228 3.17915 13.7669 2.65405 13.7669 2ZM5.76688 2C5.76688 1.87854 5.84269 1.73845 6.01708 1.59092C6.18957 1.445 6.44511 1.30383 6.76955 1.18059C7.41757 0.934443 8.32179 0.76688 9.33312 0.76688C10.3444 0.76688 11.2488 0.934447 11.897 1.1806C12.2215 1.30384 12.4772 1.44502 12.6497 1.59094C12.8242 1.73848 12.9 1.87856 12.9 2C12.9 2.12144 12.8242 2.26152 12.6497 2.40906C12.4772 2.55498 12.2215 2.69616 11.897 2.8194C11.2488 3.06555 10.3444 3.23312 9.33312 3.23312C8.32179 3.23312 7.41757 3.06555 6.76955 2.8194C6.44511 2.69616 6.18957 2.55499 6.01708 2.40907C5.84269 2.26154 5.76688 2.12145 5.76688 2Z" fill="#213F7D" stroke="#213F7D" stroke-width="0.2"/>
<path d="M13.7669 2V1.9H13.6669H13H12.9V2V4C12.9 4.12144 12.8242 4.26153 12.6497 4.40907C12.4772 4.55499 12.2215 4.69616 11.897 4.8194C11.2488 5.06556 10.3444 5.23312 9.33312 5.23312C8.32179 5.23312 7.41757 5.06555 6.76955 4.8194C6.44511 4.69616 6.18957 4.55499 6.01708 4.40907C5.84269 4.26154 5.76688 4.12145 5.76688 4V2V1.9H5.66688H5H4.9V2V4C4.9 4.65404 5.43887 5.17915 6.23483 5.53541C7.03736 5.89462 8.13541 6.1 9.33312 6.1C10.5311 6.1 11.6294 5.89462 12.432 5.53541C13.228 5.17915 13.7669 4.65405 13.7669 4V2Z" fill="#213F7D" stroke="#213F7D" stroke-width="0.2"/>
<path d="M4.9 6.00629V6.08865L4.98083 6.10444L4.98084 6.10444L4.98859 6.10595L4.99649 6.10623C5.22453 6.11426 5.44633 6.13095 5.6594 6.15503L5.78668 6.16942L5.76975 6.04245C5.76781 6.02789 5.76688 6.01418 5.76688 6.00004V4.00004V3.90004H5.66688H5H4.9V4.00004V6.00004V6.00629ZM8.33339 7.95156L8.33625 8.05075C8.65711 8.08296 8.99107 8.1 9.33312 8.1C10.5311 8.1 11.6294 7.89462 12.432 7.53541C13.228 7.17915 13.7669 6.65405 13.7669 6V4V3.9H13.6669H13H12.9V4V6C12.9 6.12144 12.8242 6.26153 12.6497 6.40907C12.4772 6.55499 12.2215 6.69616 11.897 6.8194C11.2488 7.06556 10.3444 7.23312 9.33312 7.23312C8.98805 7.23312 8.65558 7.21395 8.34068 7.17813L8.21331 7.16365L8.23025 7.29071C8.23218 7.30519 8.23313 7.31953 8.23313 7.33312C8.23313 7.39031 8.23818 7.61772 8.24628 7.95366L8.33339 7.95156Z" fill="#213F7D" stroke="#213F7D" stroke-width="0.2"/>
<path d="M8.29612 9.90823L8.1363 10.0319L8.38796 10.0558C8.69304 10.0849 9.00935 10.1 9.33307 10.1C10.5311 10.1 11.6293 9.89465 12.4319 9.53544C13.228 9.17918 13.7668 8.65407 13.7668 8.00003V6.00003V5.90003H13.6668H13H12.9V6.00003V8.00003C12.9 8.12147 12.8241 8.26156 12.6497 8.40909C12.4771 8.55502 12.2215 8.69619 11.897 8.81943C11.2488 9.06558 10.3444 9.23315 9.33307 9.23315C9.00658 9.23315 8.69013 9.21583 8.39061 9.18372L8.27702 9.17154L8.27999 9.28574C8.28173 9.35292 8.28347 9.42098 8.28523 9.48978C8.28874 9.62663 8.29232 9.76644 8.29612 9.90823ZM5.6559 6.1544L5.76688 6.16665V6.055V6V5.9H5.66688H5H4.9V6V6.00625V6.10277L4.99646 6.10619C5.22323 6.11422 5.44324 6.1309 5.6559 6.1544Z" fill="#213F7D" stroke="#213F7D" stroke-width="0.2"/>
<path d="M9.10001 8C9.10001 7.34596 8.56113 6.82085 7.76518 6.46459C6.96265 6.10538 5.86459 5.9 4.66689 5.9C3.46887 5.9 2.37065 6.10538 1.56804 6.46459C0.772007 6.82085 0.23313 7.34595 0.23313 8C0.23313 8.65405 0.772007 9.17915 1.56804 9.53541C2.37065 9.89462 3.46887 10.1 4.66689 10.1C5.86459 10.1 6.96265 9.89462 7.76518 9.53541C8.56113 9.17915 9.10001 8.65404 9.10001 8ZM1.10001 8C1.10001 7.87856 1.17584 7.73847 1.3503 7.59093C1.52285 7.44501 1.77847 7.30384 2.10299 7.1806C2.75118 6.93444 3.65556 6.76688 4.66689 6.76688C5.67822 6.76688 6.58244 6.93445 7.23046 7.1806C7.5549 7.30384 7.81044 7.44501 7.98293 7.59093C8.15732 7.73846 8.23313 7.87855 8.23313 8C8.23313 8.12145 8.15732 8.26154 7.98293 8.40907C7.81044 8.55499 7.5549 8.69616 7.23046 8.8194C6.58244 9.06555 5.67822 9.23312 4.66689 9.23312C3.65556 9.23312 2.75118 9.06555 2.10299 8.8194C1.77847 8.69616 1.52285 8.55498 1.3503 8.40906C1.17584 8.26152 1.10001 8.12144 1.10001 8Z" fill="#213F7D" stroke="#213F7D" stroke-width="0.2"/>
<path d="M9.10001 8V7.9H9.00001H8.33313H8.23313V8V10C8.23313 10.1215 8.15732 10.2615 7.98293 10.4091C7.81044 10.555 7.5549 10.6962 7.23046 10.8194C6.58244 11.0656 5.67822 11.2331 4.66689 11.2331C3.65556 11.2331 2.75118 11.0656 2.10299 10.8194C1.77847 10.6962 1.52285 10.555 1.3503 10.4091C1.17584 10.2615 1.10001 10.1214 1.10001 10V8V7.9H1.00001H0.33313H0.23313V8V10C0.23313 10.654 0.772007 11.1791 1.56804 11.5354C2.37065 11.8946 3.46887 12.1 4.66689 12.1C5.86459 12.1 6.96265 11.8946 7.76518 11.5354C8.56113 11.1791 9.10001 10.654 9.10001 10V8Z" fill="#213F7D" stroke="#213F7D" stroke-width="0.2"/>
<path d="M9.10001 10V9.9H9.00001H8.33313H8.23313V10V12C8.23313 12.1215 8.15732 12.2615 7.98293 12.4091C7.81044 12.555 7.5549 12.6962 7.23046 12.8194C6.58244 13.0656 5.67822 13.2331 4.66689 13.2331C3.65556 13.2331 2.75118 13.0656 2.10299 12.8194C1.77847 12.6962 1.52285 12.555 1.3503 12.4091C1.17584 12.2615 1.10001 12.1214 1.10001 12V10V9.9H1.00001H0.33313H0.23313V10V12C0.23313 12.654 0.772007 13.1791 1.56804 13.5354C2.37065 13.8946 3.46887 14.1 4.66689 14.1C5.86459 14.1 6.96265 13.8946 7.76518 13.5354C8.56113 13.1791 9.10001 12.654 9.10001 12V10Z" fill="#213F7D" stroke="#213F7D" stroke-width="0.2"/>
<path d="M9.10001 12V11.9H9.00001H8.33313H8.23313V12V14C8.23313 14.1215 8.15732 14.2615 7.98293 14.4091C7.81044 14.555 7.5549 14.6962 7.23046 14.8194C6.58244 15.0656 5.67822 15.2331 4.66689 15.2331C3.65556 15.2331 2.75118 15.0656 2.10299 14.8194C1.77847 14.6962 1.52285 14.555 1.3503 14.4091C1.17584 14.2615 1.10001 14.1214 1.10001 14V12V11.9H1.00001H0.33313H0.23313V12V14C0.23313 14.654 0.772007 15.1791 1.56804 15.5354C2.37065 15.8946 3.46887 16.1 4.66689 16.1C5.86459 16.1 6.96265 15.8946 7.76518 15.5354C8.56113 15.1791 9.10001 14.654 9.10001 14V12Z" fill="#213F7D" stroke="#213F7D" stroke-width="0.2"/>
<path d="M8.35904 12.0014L8.38279 12.0556L8.44167 12.0608C8.73037 12.0868 9.02835 12.1 9.33311 12.1C10.5311 12.1 11.6293 11.8946 12.432 11.5354C13.228 11.1791 13.7669 10.654 13.7669 10V8V7.9H13.6669H13H12.9V8V10C12.9 10.1214 12.8242 10.2615 12.6497 10.4091C12.4771 10.555 12.2215 10.6962 11.897 10.8194C11.2488 11.0656 10.3444 11.2331 9.33311 11.2331C9.02519 11.2331 8.72726 11.2177 8.44306 11.1892L8.33037 11.178L8.33314 11.2912C8.33682 11.4418 8.34077 11.5907 8.34464 11.7363C8.34668 11.8131 8.3487 11.889 8.35064 11.9638L8.35115 11.9835L8.35904 12.0014L8.35904 12.0014Z" fill="#213F7D" stroke="#213F7D" stroke-width="0.2"/>
<path d="M8.41079 13.9998L8.43245 14.0607L8.49687 14.0659C8.76763 14.088 9.04785 14.1 9.33313 14.1C10.5312 14.1 11.6294 13.8946 12.432 13.5354C13.228 13.1791 13.7669 12.654 13.7669 12V10V9.9H13.6669H13H12.9V10V12C12.9 12.1214 12.8242 12.2615 12.6497 12.4091C12.4772 12.555 12.2216 12.6962 11.897 12.8194C11.2488 13.0656 10.3445 13.2331 9.33313 13.2331C9.04439 13.2331 8.76439 13.2195 8.49628 13.1942L8.38384 13.1836L8.38691 13.2965C8.3915 13.4648 8.39534 13.6089 8.39835 13.7222C8.40151 13.8406 8.40377 13.9254 8.40504 13.9692L8.4055 13.9849L8.41078 13.9998L8.41079 13.9998Z" fill="#213F7D" stroke="#213F7D" stroke-width="0.2"/>
</svg>
